<?xml version="1.0" standalone="no"?>
<!DOCTYPE svg PUBLIC "-//W3C//DTD SVG 20010904//EN"
 "http://www.w3.org/TR/2001/REC-SVG-20010904/DTD/svg10.dtd">
<svg version="1.0" xmlns="http://www.w3.org/2000/svg"
 width="1273.000000pt" height="1244.000000pt"
 preserveAspectRatio="xMidYMid meet">
<metadata>
Created by potrace 1.13, written by Peter Selinger 2001-2015
</metadata>
<g transform="translate(220.000000,650.000000) scale(0.08500,-0.076000)"
fill="#000000" stroke="none">
<path d="M4590 8185 c-130 -36 -282 -136 -405 -267 -38 -40 -263 -273 -500
-518 -2109 -2178 -3374 -3565 -3483 -3819 -36 -83 -63 -198 -69 -297 -5 -76
-2 -103 16 -162 37 -124 149 -219 302 -258 109 -28 241 0 405 85 123 65 171
97 396 272 863 668 1702 1181 2257 1379 508 181 832 103 1297 -311 169 -150
313 -308 775 -853 236 -279 440 -491 575 -600 430 -344 757 -339 880 13 47
132 54 98 -134 597 -823 2174 -1499 3859 -1759 4379 -94 188 -184 293 -293
343 -68 32 -179 39 -260 17z"/>
<path d="M6184 6881 c-98 -24 -200 -115 -256 -230 -74 -149 -39 -389 100 -682
46 -98 270 -688 748 -1972 112 -302 233 -619 268 -705 133 -327 156 -443 121
-607 -54 -252 -274 -489 -686 -737 -145 -88 -267 -153 -724 -382 -498 -251
-616 -316 -800 -440 -209 -140 -393 -344 -456 -504 -17 -43 -23 -78 -24 -142
0 -76 3 -91 30 -138 41 -75 124 -148 224 -196 l84 -40 526 93 c2516 444 4221
784 4681 933 162 52 275 139 326 251 26 56 29 72 29 167 0 190 -42 276 -337
695 -1755 2491 -2903 4041 -3273 4421 -70 72 -94 89 -185 133 -159 77 -296
105 -396 82z"/>
</g>
</svg>
